<?xml version="1.0" standalone="no"?>
<!DOCTYPE svg PUBLIC "-//W3C//DTD SVG 20010904//EN"
 "http://www.w3.org/TR/2001/REC-SVG-20010904/DTD/svg10.dtd">
<svg version="1.0" xmlns="http://www.w3.org/2000/svg"
 width="608.000000pt" height="608.000000pt" viewBox="0 0 608.000000 608.000000"
 preserveAspectRatio="xMidYMid meet">
<metadata>
Created by potrace 1.14, written by Peter Selinger 2001-2017
</metadata>
<g transform="translate(0.000000,608.000000) scale(0.100000,-0.100000)"
fill="#000000" stroke="none">
<path d="M3135 5989 c-156 -15 -273 -32 -370 -54 -38 -8 -83 -17 -98 -20 -35
-5 -162 -40 -247 -68 -36 -12 -67 -22 -70 -22 -11 -2 -57 -18 -85 -30 -16 -7
-61 -25 -100 -41 -137 -55 -356 -165 -452 -227 -24 -15 -45 -27 -47 -27 -6 0
-130 -84 -188 -128 -40 -30 -112 -132 -92 -132 3 0 2 -6 -3 -12 -5 -7 -9 -29
-8 -48 6 -153 112 -261 259 -266 70 -2 137 21 208 72 27 19 52 34 57 34 5 0
11 4 13 8 5 13 183 114 294 167 146 70 346 147 444 170 8 2 40 10 70 18 77 20
198 46 245 52 22 2 50 7 63 9 136 28 633 28 772 1 14 -3 45 -8 70 -11 25 -3
63 -10 85 -16 22 -6 49 -12 60 -14 75 -13 170 -40 315 -89 109 -37 327 -131
351 -152 8 -7 23 -13 32 -13 9 0 17 -4 17 -10 0 -5 5 -10 11 -10 6 0 43 -19
82 -42 67 -40 97 -60 232 -153 68 -47 199 -158 300 -252 45 -43 95 -84 111
-92 16 -7 36 -17 44 -21 28 -13 144 -5 180 13 138 70 200 232 135 357 -28 54
-275 288 -379 359 -12 8 -23 17 -26 20 -7 8 -64 50 -140 103 -176 123 -459
273 -655 347 -33 13 -74 29 -90 37 -17 7 -42 15 -55 17 -14 3 -36 10 -50 15
-80 34 -363 103 -480 118 -24 3 -47 7 -50 9 -3 2 -37 6 -75 10 -39 3 -83 8
-100 11 -52 9 -507 11 -590 3z"/>
<path d="M3228 5004 c-2 -1 -32 -5 -66 -9 -35 -3 -71 -8 -80 -10 -47 -8 -109
-18 -122 -20 -9 0 -21 -4 -28 -9 -6 -4 -12 -5 -12 -2 0 6 -155 -36 -255 -69
-389 -131 -769 -389 -1030 -700 -27 -33 -53 -64 -57 -70 -4 -5 -20 -26 -35
-45 -39 -48 -104 -145 -138 -205 -16 -27 -32 -52 -35 -55 -12 -11 -112 -222
-146 -311 -35 -90 -90 -267 -100 -319 -2 -14 -7 -36 -10 -50 -51 -217 -64
-574 -29 -810 20 -141 25 -166 56 -285 52 -204 133 -402 244 -593 53 -92 86
-129 135 -150 82 -34 156 -16 257 62 56 44 68 49 127 53 89 7 154 -16 223 -79
67 -60 112 -81 178 -80 79 0 135 30 214 114 124 133 50 365 -134 422 -92 29
-169 10 -248 -61 -30 -27 -78 -55 -94 -54 -2 0 -16 -4 -32 -9 -43 -12 -112 6
-154 41 -24 20 -51 61 -81 122 -50 104 -112 267 -121 317 -3 18 -8 37 -11 42
-5 7 -8 20 -19 78 -3 14 -7 34 -9 45 -4 20 -15 94 -22 150 -5 43 -5 301 0 355
10 91 16 130 35 214 10 47 16 88 13 91 -3 3 1 5 8 5 7 0 11 2 8 5 -9 9 38 145
67 198 53 93 168 159 285 162 98 2 214 -39 290 -103 l34 -29 -37 -62 c-20 -34
-37 -66 -37 -71 0 -5 -9 -24 -19 -42 -21 -36 -78 -200 -86 -250 -3 -17 -8 -34
-10 -37 -16 -27 -27 -333 -13 -415 4 -28 10 -69 14 -91 3 -22 8 -43 11 -48 3
-4 7 -23 10 -40 19 -125 114 -212 225 -208 54 2 117 22 148 48 110 90 138 184
116 388 -14 125 -8 242 14 301 5 13 8 24 5 24 -6 0 49 130 75 175 81 144 240
280 390 334 110 40 174 50 300 44 279 -11 298 -10 366 26 50 26 62 37 98 84
70 94 66 238 -8 311 -19 20 -84 55 -110 60 -6 2 -29 8 -51 14 -96 27 -171 35
-320 36 -139 0 -204 -5 -211 -16 -3 -5 -9 -6 -14 -3 -13 8 -176 -35 -245 -64
-64 -28 -146 -68 -188 -93 -26 -15 -50 -28 -52 -28 -2 0 -90 86 -194 192 -186
188 -190 192 -168 207 12 8 24 18 27 21 24 30 410 233 410 215 0 -2 19 4 43
14 44 19 187 59 234 66 16 2 44 7 63 10 98 16 147 19 285 19 132 1 236 -6 300
-18 46 -8 101 -19 110 -22 6 -2 24 -6 40 -9 80 -16 254 -83 383 -146 149 -73
165 -79 222 -80 182 -3 308 140 278 315 -8 46 -18 63 -56 103 -26 26 -57 54
-70 61 -173 97 -331 168 -467 211 -38 13 -77 25 -85 28 -8 3 -24 8 -34 10 -11
2 -45 10 -76 18 -30 8 -73 17 -95 21 -22 3 -42 7 -45 9 -3 2 -37 6 -75 10 -39
4 -74 10 -79 13 -10 5 -423 12 -428 6z"/>
<path d="M865 4692 c-37 -6 -80 -25 -114 -50 -48 -36 -188 -251 -300 -465 -68
-128 -196 -441 -216 -527 -2 -8 -9 -31 -15 -50 -14 -45 -38 -131 -44 -162 -3
-12 -14 -63 -25 -113 -22 -100 -32 -162 -46 -275 -27 -225 -28 -607 0 -833 18
-146 66 -380 104 -505 5 -18 11 -36 12 -40 1 -4 3 -11 5 -17 2 -5 13 -41 24
-80 12 -38 28 -84 36 -102 8 -17 14 -34 14 -38 0 -28 165 -376 230 -485 18
-30 38 -64 44 -75 40 -72 161 -238 188 -258 94 -69 213 -59 308 27 54 48 117
70 188 64 74 -7 121 -29 180 -86 90 -85 177 -106 267 -62 112 54 160 194 107
312 -20 46 -88 122 -135 152 -75 46 -191 35 -255 -24 -85 -80 -202 -88 -280
-21 -17 16 -32 32 -32 35 0 9 -43 70 -52 74 -5 2 -8 10 -8 18 0 8 -4 14 -10
14 -5 0 -10 4 -10 10 0 5 -19 40 -41 77 -35 56 -138 264 -169 338 -12 31 -35
89 -36 95 -1 8 -15 43 -25 65 -11 24 -77 255 -84 292 -2 15 -9 49 -14 77 -6
28 -12 62 -15 76 -2 14 -7 41 -10 60 -33 183 -39 606 -12 770 3 14 7 47 11 73
3 26 10 71 16 100 6 29 13 65 15 80 3 16 17 70 30 120 14 51 26 99 28 107 7
28 64 185 95 264 58 143 146 310 246 466 76 119 88 148 91 223 2 76 -17 133
-63 186 -55 65 -155 105 -228 93z"/>
<path d="M5149 3971 c-46 -15 -74 -33 -117 -79 -53 -56 -71 -113 -67 -208 3
-63 9 -83 58 -180 68 -135 79 -161 111 -252 30 -83 71 -245 80 -312 3 -25 10
-69 15 -99 8 -54 7 -388 -2 -426 -3 -11 -8 -40 -11 -65 -29 -209 -121 -469
-229 -645 -58 -94 -97 -154 -107 -160 -5 -3 -94 81 -198 186 l-189 191 44 76
c106 188 164 408 166 637 0 60 -12 215 -18 225 -2 3 -6 21 -9 40 -10 68 -48
175 -73 209 -79 104 -259 99 -358 -11 -67 -73 -80 -117 -77 -248 8 -323 7
-335 -24 -440 -18 -60 -65 -163 -76 -168 -5 -2 -8 -9 -8 -15 -1 -32 -142 -179
-227 -236 -129 -86 -264 -125 -423 -124 -47 1 -105 4 -130 8 -179 28 -325 -32
-383 -158 -45 -95 -28 -214 39 -273 30 -27 119 -65 160 -69 12 -1 30 -5 40 -9
10 -4 36 -10 58 -12 21 -3 57 -8 80 -12 43 -8 236 -7 296 2 95 13 113 16 119
21 4 2 22 7 40 10 43 7 153 45 169 58 6 5 12 7 12 4 0 -6 123 57 181 92 l31
19 186 -189 c103 -105 189 -194 190 -199 2 -6 -1 -10 -6 -10 -6 0 -17 -6 -24
-13 -22 -21 -106 -77 -116 -77 -6 0 -12 -4 -14 -9 -8 -22 -379 -185 -436 -191
-4 0 -25 -5 -47 -11 -44 -12 -53 -14 -135 -29 -130 -23 -373 -31 -490 -17
-111 15 -145 20 -197 32 -13 3 -31 7 -41 9 -141 32 -249 73 -430 163 -129 64
-136 67 -205 66 -85 -1 -131 -19 -189 -71 -74 -67 -105 -187 -71 -276 16 -41
78 -116 97 -116 5 0 17 -6 25 -14 54 -46 387 -197 489 -221 9 -3 49 -14 87
-25 39 -12 79 -23 90 -25 11 -2 43 -8 70 -13 28 -6 70 -13 95 -17 25 -4 56 -9
70 -11 135 -21 494 -21 596 0 12 2 39 7 60 10 22 3 50 8 64 11 14 3 39 7 55
10 122 17 441 130 570 202 22 12 60 32 85 44 25 13 50 27 55 31 6 4 53 36 105
70 52 34 101 68 109 76 8 7 24 20 37 29 24 15 28 12 303 -266 301 -304 325
-322 424 -324 88 -1 171 49 232 141 21 32 29 58 32 110 8 115 0 126 -314 444
-153 153 -280 282 -283 284 -2 3 0 8 6 12 13 9 132 181 174 252 100 169 226
469 254 603 3 12 7 32 10 45 35 142 49 232 62 392 11 150 5 374 -13 475 -4 22
-6 43 -5 47 2 7 -10 70 -23 128 -3 14 -8 36 -10 50 -32 202 -230 665 -323 758
-49 49 -162 75 -233 53z"/>
</g>
</svg>
